THE FRIGHTENERS

Peter Jackson's Director's Cut

HD-DVD Rip

------------------------------

General
Complete name                    : The_Frighteners_DC_feature_1920_FullHD.mkv
Format                           : Matroska
File size                        : 4.38 GiB
Duration                         : 2h 2mn
Overall bit rate                 : 5 109 Kbps
Movie name                       : The Frighteners
Encoded date                     : UTC 2010-04-25 14:35:41
Writing application              : mkvmerge v3.3.0 ('Language') Mar 24 2010 14:59:24
Writing library                  : libebml v0.8.0 + libmatroska v0.9.0

Video
ID                               : 1
Format                           : AVC
Format/Info                      : Advanced Video Codec
Format profile                   : High@L4.0
Format settings, CABAC           : Yes
Format settings, ReFrames        : 2 frames
Muxing mode                      : Container profile=Unknown@4.0
Codec ID                         : V_MPEG4/ISO/AVC
Duration                         : 2h 2mn
Bit rate                         : 4 368 Kbps
Nominal bit rate                 : 4 464 Kbps
Width                            : 1 920 pixels
Height                           : 816 pixels
Display aspect ratio             : 2.35:1
Frame rate                       : 23.976 fps
Resolution                       : 8 bits
Colorimetry                      : 4:2:0
Scan type                        : Progressive
Bits/(Pixel*Frame)               : 0.116
Stream size                      : 3.74 GiB (85%)
Title                            : The Frighteners - Peter Jackson's Director's Cut
Writing library                  : x264 core 80 r1376M 3feaec2
Encoding settings                : cabac=1 / ref=2 / deblock=1:-1:-1 / analyse=0x3:0x113 / me=hex / subme=6 / psy=1 / psy_rd=1.0:0.2 / mixed_ref=1 / me_range=16 / chroma_me=1 / trellis=1 / 8x8dct=1 / cqm=0 / deadzone=21,11 / fast_pskip=1 / chroma_qp_offset=-3 / threads=3 / sliced_threads=0 / nr=0 / decimate=1 / mbaff=0 / constrained_intra=0 / bframes=3 / b_pyramid=0 / b_adapt=1 / b_bias=0 / direct=1 / wpredb=1 / wpredp=2 / keyint=250 / keyint_min=25 / scenecut=40 / rc_lookahead=30 / rc=2pass / mbtree=1 / bitrate=4464 / ratetol=1.0 / qcomp=0.60 / qpmin=10 / qpmax=51 / qpstep=4 / cplxblur=20.0 / qblur=0.5 / ip_ratio=1.40 / aq=1:1.00

Audio #1
ID                               : 2
Format                           : AC-3
Format/Info                      : Audio Coding 3
Codec ID                         : A_AC3
Duration                         : 2h 2mn
Bit rate mode                    : Constant
Bit rate                         : 448 Kbps
Channel(s)                       : 6 channels
Channel positions                : Front: L C R, Surround: L R, LFE
Sampling rate                    : 48.0 KHz
Stream size                      : 393 MiB (9%)
Title                            : English
Language                         : English

Audio #2
ID                               : 3
Format                           : AC-3
Format/Info                      : Audio Coding 3
Codec ID                         : A_AC3
Duration                         : 2h 2mn
Bit rate mode                    : Constant
Bit rate                         : 192 Kbps
Channel(s)                       : 2 channels
Channel positions                : L R
Sampling rate                    : 48.0 KHz
Stream size                      : 168 MiB (4%)
Title                            : Feature Commentary by Peter Jackson
Language                         : English

Text #1
ID                               : 4
Format                           : VobSub
Codec ID                         : S_VOBSUB
Codec ID/Info                    : The same subtitle format used on DVDs
Title                            : English
Language                         : English

Text #2
ID                               : 5
Format                           : VobSub
Codec ID                         : S_VOBSUB
Codec ID/Info                    : The same subtitle format used on DVDs
Title                            : Français
Language                         : French

Menu
00:00:00.000                     : en:Intro
00:02:40.533                     : en:Main Titles: The Curse of Fairwater
00:08:49.733                     : en:You've Ruptured My Lawn
00:09:59.116                     : en:Patricia Never Leaves the House
00:12:06.366                     : en:Newsflash 1964
00:15:21.983                     : en:Calling Mr. Bannister
00:19:51.950                     : en:What's with the Number?
00:20:44.616                     : en:The Ectoplasmic Associates
00:22:42.816                     : en:Stuck in the Door
00:23:49.983                     : en:Two in the Shower
00:27:50.116                     : en:Time to Get Seriously Scary
00:29:14.366                     : en:Airborne Babies
00:31:14.233                     : en:Too Many Funerals: Not Enough Traffic Lights
00:33:50.950                     : en:You Appear to Be Dead, Ray!
00:36:34.316                     : en:Drill Sergeant Hiles
00:37:59.366                     : en:The Premature Burial
00:41:46.483                     : en:Three for Dinner
00:45:35.566                     : en:The Soul Collector
00:49:27.150                     : en:Special Agent Dammers
00:52:19.033                     : en:Debra's Death
00:55:01.533                     : en:Dark Business in Fairwater
00:55:51.900                     : en:Museum Mayhem
00:59:57.566                     : en:The Reaper Strikes
01:01:16.150                     : en:Magda Passes Over
01:02:36.533                     : en:The Prime Suspect
01:04:09.116                     : en:Back Seat Passenger
01:04:44.033                     : en:The Interrogation
01:09:34.150                     : en:He Doesn't Believe Anymore
01:11:16.200                     : en:A Cry for Help
01:17:20.616                     : en:Ray Loses Face
01:18:22.233                     : en:What Are You Afraid Of?
01:20:43.066                     : en:Cyrus and Stuart to the Rescue
01:22:57.233                     : en:An Out-of-Body Experience
01:28:00.200                     : en:Pain Has Its Rewards
01:33:04.066                     : en:The Face of Death
01:35:18.033                     : en:He's Back
01:37:28.116                     : en:The Killer Couple
01:39:28.150                     : en:Fun with Knives
01:40:13.233                     : en:The Portrait Strikes
01:42:16.316                     : en:Kitchen Chase
01:43:31.866                     : en:Guess That Makes You Number One
01:44:58.783                     : en:Blasts from the Past
01:49:32.233                     : en:Dammers Loses His Head
01:51:36.866                     : en:Fun in the Morgue
01:52:12.283                     : en:In the Mood for Vivisection
01:54:47.983                     : en:The Express Bus to Hell
01:56:48.900                     : en:Time to Go Home
01:58:31.366                     : en:Life After Death
02:00:24.733                     : en:End Titles

------------------------------

Upload will be slow but steady.

In addition to DHT, peer exchange and local peer discovery the following trackers are supported:  
http://denis.stalker.h3q.com:6969/announce  
http://tracker.openbittorrent.com/announce
